# xmcd CD database file
#
# Track frame offsets:
#	150
#	20111
#	41772
#	58266
#	77135
#	92650
#	111524
#	132340
#	153894
#	167910
#
# Disc length: 2471 seconds
#
# Revision: 2
# Processed by: cddbd v1.5.2PL0 Copyright (c) Steve Scherf et al.
# Submitted via: jetAudio 7
#
DISCID=8809a50a
DTITLE=中森 明菜 - etranger
DYEAR=1983
DGENRE=JPop
TTITLE0=01-さよならね
TTITLE1=02-ビーナス誕生
TTITLE2=03-少しだけスキャンダル
TTITLE3=04-感傷紀行
TTITLE4=05-ルネサンス－優しさで変えて－
TTITLE5=06-モナムール（グラスに半分の黄昏）
TTITLE6=07-ストライプ
TTITLE7=08-わくらば色の風（ラヴ・ソング）
TTITLE8=09-時にはアンニュイ
TTITLE9=10-覚悟の秋
EXTD=アルバム名：NEW AKINA エトランゼ
EXTT0=
EXTT1=
EXTT2=
EXTT3=
EXTT4=
EXTT5=
EXTT6=
EXTT7=
EXTT8=
EXTT9=
PLAYORDER=
